<svg xmlns="http://www.w3.org/2000/svg" viewBox="0 0 932.88 460.99"><g id="Capa_2" data-name="Capa 2"><g id="Submarine"><path d="M243.35,200.63h36.53c4,0,6.45,3.14,7.3,6.79l18.36,78.72-69.49,29.2V207.42A7.09,7.09,0,0,1,243.35,200.63Z" style="fill:#edaa00;fill-rule:evenodd"/><path d="M243.35,200.63h36.53c4,0,6.45,3.14,7.3,6.79l.7,3H236.05v-3A7.09,7.09,0,0,1,243.35,200.63Z" style="fill:#ffc012;fill-rule:evenodd"/><path d="M243.35,461h36.53c4,0,6.45-3.15,7.3-6.8l18.36-78.71-69.49-29.2V454.19A7.09,7.09,0,0,0,243.35,461Z" style="fill:#edaa00;fill-rule:evenodd"/><path d="M236.05,361c18.85,9.58,41.18,20.27,65.59,31.16l3.9-16.7-69.49-29.2Z" style="fill:#d99100;fill-rule:evenodd"/><path d="M243.35,461h36.53c4,0,6.45-3.15,7.3-6.8l.7-3H236.05v3A7.09,7.09,0,0,0,243.35,461Z" style="fill:#ffc012;fill-rule:evenodd"/><path d="M729.21,29.89H715.42A2.19,2.19,0,0,0,713.28,32V112.4H691.8V32A23.66,23.66,0,0,1,715.42,8.41h13.79Z" style="fill:gray;fill-rule:evenodd"/><path d="M729.21,29.89H715.42A2.19,2.19,0,0,0,713.28,32V112.4H702.54V33.47a14.36,14.36,0,0,1,14.32-14.32h12.35Z" style="fill:#6b6b6b;fill-rule:evenodd"/><rect x="726.4" width="19.87" height="38.3" rx="3.35" style="fill:#fc0"/><path d="M746.27,5.41V3.35A3.36,3.36,0,0,0,742.92,0H729.75a3.36,3.36,0,0,0-3.35,3.35V5.41Z" style="fill:#ffe642;fill-rule:evenodd"/><path d="M726.4,33.31V35a3.36,3.36,0,0,0,3.35,3.35h13.17A3.36,3.36,0,0,0,746.27,35V33.31Z" style="fill:#ffe642;fill-rule:evenodd"/><path d="M576.75,211.6H807.27L791.8,121.5c-1.52-8.8-7.31-16.23-16.24-16.23h-146c-8.93,0-12.88,8-16.23,16.23Q595,166.55,576.75,211.6Z" style="fill:#fc0;fill-rule:evenodd"/><path d="M792.12,123.41l-.32-1.91c-1.52-8.8-7.31-16.23-16.24-16.23h-146c-8.93,0-12.88,8-16.23,16.23l-.77,1.91Z" style="fill:#ffdb26;fill-rule:evenodd"/><path d="M576.75,211.6H807.27l-4.76-27.71H588Z" style="fill:#f5b000;fill-rule:evenodd"/><polygon points="795.99 145.89 795.53 143.25 604.46 143.25 603.39 145.89 795.99 145.89" style="fill:#bf7f00;fill-rule:evenodd"/><path d="M708,133.78a2.23,2.23,0,1,1-2.23,2.23A2.23,2.23,0,0,1,708,133.78Z" style="fill:#bf7f00;fill-rule:evenodd"/><path d="M688.46,133.78a2.23,2.23,0,1,1-2.23,2.23A2.23,2.23,0,0,1,688.46,133.78Z" style="fill:#bf7f00;fill-rule:evenodd"/><path d="M668.68,133.78a2.23,2.23,0,1,1-2.24,2.23A2.23,2.23,0,0,1,668.68,133.78Z" style="fill:#bf7f00;fill-rule:evenodd"/><path d="M649.14,133.78a2.23,2.23,0,1,1-2.23,2.23A2.23,2.23,0,0,1,649.14,133.78Z" style="fill:#bf7f00;fill-rule:evenodd"/><path d="M629.8,133.78a2.23,2.23,0,1,1-2.23,2.23A2.23,2.23,0,0,1,629.8,133.78Z" style="fill:#bf7f00;fill-rule:evenodd"/><path d="M611,133.78a2.23,2.23,0,1,1-2.24,2.23A2.23,2.23,0,0,1,611,133.78Z" style="fill:#bf7f00;fill-rule:evenodd"/><path d="M768.27,133.78A2.23,2.23,0,1,1,766,136,2.23,2.23,0,0,1,768.27,133.78Z" style="fill:#bf7f00;fill-rule:evenodd"/><path d="M748.48,133.78a2.23,2.23,0,1,1-2.23,2.23A2.23,2.23,0,0,1,748.48,133.78Z" style="fill:#bf7f00;fill-rule:evenodd"/><path d="M729,133.78a2.23,2.23,0,1,1-2.23,2.23A2.23,2.23,0,0,1,729,133.78Z" style="fill:#bf7f00;fill-rule:evenodd"/><path d="M789.05,133.78a2.23,2.23,0,1,1-2.23,2.23A2.23,2.23,0,0,1,789.05,133.78Z" style="fill:#bf7f00;fill-rule:evenodd"/><path d="M708,150.58a2.24,2.24,0,1,1-2.23,2.23A2.23,2.23,0,0,1,708,150.58Z" style="fill:#bf7f00;fill-rule:evenodd"/><path d="M687.27,150.58a2.24,2.24,0,1,1-2.23,2.23A2.23,2.23,0,0,1,687.27,150.58Z" style="fill:#bf7f00;fill-rule:evenodd"/><path d="M667.61,150.58a2.24,2.24,0,1,1-2.23,2.23A2.23,2.23,0,0,1,667.61,150.58Z" style="fill:#bf7f00;fill-rule:evenodd"/><path d="M648,150.58a2.24,2.24,0,1,1-2.23,2.23A2.23,2.23,0,0,1,648,150.58Z" style="fill:#bf7f00;fill-rule:evenodd"/><path d="M626.87,150.58a2.24,2.24,0,1,1-2.23,2.23A2.23,2.23,0,0,1,626.87,150.58Z" style="fill:#bf7f00;fill-rule:evenodd"/><path d="M605,150.58a2.24,2.24,0,1,1-2.23,2.23A2.23,2.23,0,0,1,605,150.58Z" style="fill:#bf7f00;fill-rule:evenodd"/><path d="M771.77,150.58a2.24,2.24,0,1,1-2.23,2.23A2.23,2.23,0,0,1,771.77,150.58Z" style="fill:#bf7f00;fill-rule:evenodd"/><path d="M749.89,150.58a2.24,2.24,0,1,1-2.23,2.23A2.23,2.23,0,0,1,749.89,150.58Z" style="fill:#bf7f00;fill-rule:evenodd"/><path d="M729.44,150.58a2.24,2.24,0,1,1-2.23,2.23A2.23,2.23,0,0,1,729.44,150.58Z" style="fill:#bf7f00;fill-rule:evenodd"/><path d="M791.92,150.58a2.24,2.24,0,1,1-2.24,2.23A2.23,2.23,0,0,1,791.92,150.58Z" style="fill:#bf7f00;fill-rule:evenodd"/><path d="M578.33,197H800.88c72.6,0,132,59.4,132,132h0c0,72.6-59.4,132-132,132H578.33c-102.63,0-273.69-72.65-354.86-115.26V312.24C304.64,269.63,475.7,197,578.33,197Z" style="fill:#fc0;fill-rule:evenodd"/><path d="M578.33,410.46c-102.63,0-273.69-44.84-354.86-71.14v6.41C304.64,388.34,475.7,461,578.33,461H800.88c72.6,0,132-59.4,132-132,0,44.81-59.4,81.47-132,81.47Z" style="fill:#f5b000;fill-rule:evenodd"/><path d="M578.33,219.1H800.88c72.6,0,132,49.45,132,109.89,0-72.6-59.4-132-132-132H578.33c-102.63,0-273.69,72.64-354.86,115.25v2.81C304.64,279.58,475.7,219.1,578.33,219.1Z" style="fill:#ffe642;fill-rule:evenodd"/><path d="M578.33,230.47H800.88c72.6,0,132,44.33,132,98.52,0-63.56-59.4-115.57-132-115.57H578.33c-102.63,0-273.69,63.6-354.86,100.91v2.16C304.64,284.69,475.7,230.47,578.33,230.47Z" style="fill:#ffdb26;fill-rule:evenodd"/><path d="M888.76,230.71a105.45,105.45,0,0,0-6,9.32c-13,22.75-21,54.19-21,89s8,66.21,21,88.95a105.45,105.45,0,0,0,6,9.32c-.66.59-1.32,1.18-2,1.75a114.16,114.16,0,0,1-6.26-9.76c-13.22-23.12-21.39-55-21.39-90.26s8.17-67.14,21.39-90.27a114.16,114.16,0,0,1,6.26-9.76Z" style="fill:#bf7f00;fill-rule:evenodd"/><path d="M878.5,227.63a2.23,2.23,0,1,1-2.24,2.23A2.23,2.23,0,0,1,878.5,227.63Z" style="fill:#bf7f00;fill-rule:evenodd"/><path d="M890.27,237.16A2.24,2.24,0,1,1,888,239.4,2.23,2.23,0,0,1,890.27,237.16Z" style="fill:#bf7f00;fill-rule:evenodd"/><path d="M868.77,244.52a2.24,2.24,0,1,1-2.24,2.24A2.23,2.23,0,0,1,868.77,244.52Z" style="fill:#bf7f00;fill-rule:evenodd"/><path d="M883.28,249.93a2.23,2.23,0,1,1-2.23,2.23A2.23,2.23,0,0,1,883.28,249.93Z" style="fill:#bf7f00;fill-rule:evenodd"/><path d="M861.65,262.73a2.24,2.24,0,1,1-2.23,2.23A2.23,2.23,0,0,1,861.65,262.73Z" style="fill:#bf7f00;fill-rule:evenodd"/><path d="M856.78,283.43a2.23,2.23,0,1,1-2.23,2.23A2.23,2.23,0,0,1,856.78,283.43Z" style="fill:#bf7f00;fill-rule:evenodd"/><path d="M852.52,326.75a2.24,2.24,0,1,1-2.23,2.24A2.24,2.24,0,0,1,852.52,326.75Z" style="fill:#bf7f00;fill-rule:evenodd"/><path d="M853.54,304.33a2.24,2.24,0,1,1-2.23,2.23A2.23,2.23,0,0,1,853.54,304.33Z" style="fill:#bf7f00;fill-rule:evenodd"/><path d="M876.87,267.81a2.23,2.23,0,1,1-2.23,2.23A2.23,2.23,0,0,1,876.87,267.81Z" style="fill:#bf7f00;fill-rule:evenodd"/><path d="M872,285.26a2.23,2.23,0,1,1-2.23,2.23A2.23,2.23,0,0,1,872,285.26Z" style="fill:#bf7f00;fill-rule:evenodd"/><path d="M869.77,305.14a2.24,2.24,0,1,1-2.23,2.23A2.23,2.23,0,0,1,869.77,305.14Z" style="fill:#bf7f00;fill-rule:evenodd"/><path d="M868.76,326.75a2.24,2.24,0,1,1-2.24,2.24A2.23,2.23,0,0,1,868.76,326.75Z" style="fill:#bf7f00;fill-rule:evenodd"/><path d="M878.5,430.35a2.24,2.24,0,1,0-2.24-2.24A2.23,2.23,0,0,0,878.5,430.35Z" style="fill:#bf7f00;fill-rule:evenodd"/><path d="M890.27,420.81a2.24,2.24,0,1,0-2.24-2.23A2.23,2.23,0,0,0,890.27,420.81Z" style="fill:#bf7f00;fill-rule:evenodd"/><path d="M868.77,413.45a2.24,2.24,0,1,0-2.24-2.23A2.23,2.23,0,0,0,868.77,413.45Z" style="fill:#bf7f00;fill-rule:evenodd"/><path d="M883.28,408a2.23,2.23,0,1,0-2.23-2.23A2.23,2.23,0,0,0,883.28,408Z" style="fill:#bf7f00;fill-rule:evenodd"/><path d="M861.65,395.24a2.23,2.23,0,1,0-2.23-2.23A2.23,2.23,0,0,0,861.65,395.24Z" style="fill:#bf7f00;fill-rule:evenodd"/><path d="M856.78,374.54a2.23,2.23,0,1,0-2.23-2.23A2.23,2.23,0,0,0,856.78,374.54Z" style="fill:#bf7f00;fill-rule:evenodd"/><path d="M853.54,353.64a2.23,2.23,0,1,0-2.23-2.23A2.23,2.23,0,0,0,853.54,353.64Z" style="fill:#bf7f00;fill-rule:evenodd"/><path d="M876.87,390.17a2.24,2.24,0,1,0-2.23-2.24A2.24,2.24,0,0,0,876.87,390.17Z" style="fill:#bf7f00;fill-rule:evenodd"/><path d="M872,372.72a2.24,2.24,0,1,0-2.23-2.24A2.24,2.24,0,0,0,872,372.72Z" style="fill:#bf7f00;fill-rule:evenodd"/><path d="M869.77,352.83a2.24,2.24,0,1,0-2.23-2.23A2.23,2.23,0,0,0,869.77,352.83Z" style="fill:#bf7f00;fill-rule:evenodd"/><rect x="706.68" y="196.99" width="2.64" height="264" style="fill:#bf7f00"/><path d="M698.94,201.25a2.23,2.23,0,1,1-2.24,2.23A2.23,2.23,0,0,1,698.94,201.25Z" style="fill:#bf7f00;fill-rule:evenodd"/><path d="M717.2,201.25a2.23,2.23,0,1,1-2.23,2.23A2.23,2.23,0,0,1,717.2,201.25Z" style="fill:#bf7f00;fill-rule:evenodd"/><path d="M698.94,222.16a2.24,2.24,0,1,1-2.24,2.24A2.23,2.23,0,0,1,698.94,222.16Z" style="fill:#bf7f00;fill-rule:evenodd"/><circle cx="717.2" cy="224.4" r="2.23" style="fill:#bf7f00"/><path d="M698.94,243.08a2.24,2.24,0,1,1-2.24,2.23A2.23,2.23,0,0,1,698.94,243.08Z" style="fill:#bf7f00;fill-rule:evenodd"/><circle cx="717.2" cy="245.31" r="2.23" style="fill:#bf7f00"/><path d="M698.94,264a2.23,2.23,0,1,1-2.24,2.23A2.23,2.23,0,0,1,698.94,264Z" style="fill:#bf7f00;fill-rule:evenodd"/><path d="M717.2,264a2.23,2.23,0,1,1-2.23,2.23A2.23,2.23,0,0,1,717.2,264Z" style="fill:#bf7f00;fill-rule:evenodd"/><path d="M698.94,305.84a2.23,2.23,0,1,1-2.24,2.23A2.23,2.23,0,0,1,698.94,305.84Z" style="fill:#bf7f00;fill-rule:evenodd"/><path d="M717.2,305.84a2.23,2.23,0,1,1-2.23,2.23A2.23,2.23,0,0,1,717.2,305.84Z" style="fill:#bf7f00;fill-rule:evenodd"/><path d="M698.94,326.75A2.24,2.24,0,1,1,696.7,329,2.23,2.23,0,0,1,698.94,326.75Z" style="fill:#bf7f00;fill-rule:evenodd"/><path d="M717.2,326.75A2.24,2.24,0,1,1,715,329,2.23,2.23,0,0,1,717.2,326.75Z" style="fill:#bf7f00;fill-rule:evenodd"/><path d="M698.94,284.92a2.23,2.23,0,1,1-2.24,2.23A2.23,2.23,0,0,1,698.94,284.92Z" style="fill:#bf7f00;fill-rule:evenodd"/><path d="M717.2,284.92a2.23,2.23,0,1,1-2.23,2.23A2.23,2.23,0,0,1,717.2,284.92Z" style="fill:#bf7f00;fill-rule:evenodd"/><path d="M698.94,347.67a2.24,2.24,0,1,1-2.24,2.23A2.23,2.23,0,0,1,698.94,347.67Z" style="fill:#bf7f00;fill-rule:evenodd"/><circle cx="717.2" cy="349.9" r="2.23" style="fill:#bf7f00"/><path d="M698.94,368.59a2.23,2.23,0,1,1-2.24,2.23A2.23,2.23,0,0,1,698.94,368.59Z" style="fill:#bf7f00;fill-rule:evenodd"/><path d="M717.2,368.59a2.23,2.23,0,1,1-2.23,2.23A2.23,2.23,0,0,1,717.2,368.59Z" style="fill:#bf7f00;fill-rule:evenodd"/><path d="M698.94,389.51a2.23,2.23,0,1,1-2.24,2.23A2.23,2.23,0,0,1,698.94,389.51Z" style="fill:#bf7f00;fill-rule:evenodd"/><path d="M717.2,389.51a2.23,2.23,0,1,1-2.23,2.23A2.23,2.23,0,0,1,717.2,389.51Z" style="fill:#bf7f00;fill-rule:evenodd"/><path d="M698.94,431.34a2.24,2.24,0,1,1-2.24,2.23A2.23,2.23,0,0,1,698.94,431.34Z" style="fill:#bf7f00;fill-rule:evenodd"/><path d="M717.2,431.34a2.24,2.24,0,1,1-2.23,2.23A2.23,2.23,0,0,1,717.2,431.34Z" style="fill:#bf7f00;fill-rule:evenodd"/><path d="M698.94,452.26a2.23,2.23,0,1,1-2.24,2.23A2.23,2.23,0,0,1,698.94,452.26Z" style="fill:#bf7f00;fill-rule:evenodd"/><path d="M717.2,452.26a2.23,2.23,0,1,1-2.23,2.23A2.23,2.23,0,0,1,717.2,452.26Z" style="fill:#bf7f00;fill-rule:evenodd"/><path d="M698.94,410.42a2.24,2.24,0,1,1-2.24,2.24A2.23,2.23,0,0,1,698.94,410.42Z" style="fill:#bf7f00;fill-rule:evenodd"/><circle cx="717.2" cy="412.66" r="2.23" style="fill:#bf7f00"/><path d="M556.62,460V198l2.64-.21V460.23Z" style="fill:#bf7f00;fill-rule:evenodd"/><path d="M548.88,201.25a2.23,2.23,0,1,1-2.24,2.23A2.23,2.23,0,0,1,548.88,201.25Z" style="fill:#bf7f00;fill-rule:evenodd"/><path d="M567.14,201.25a2.23,2.23,0,1,1-2.23,2.23A2.23,2.23,0,0,1,567.14,201.25Z" style="fill:#bf7f00;fill-rule:evenodd"/><path d="M548.88,222.16a2.24,2.24,0,1,1-2.24,2.24A2.23,2.23,0,0,1,548.88,222.16Z" style="fill:#bf7f00;fill-rule:evenodd"/><circle cx="567.14" cy="224.4" r="2.23" style="fill:#bf7f00"/><path d="M548.88,243.08a2.24,2.24,0,1,1-2.24,2.23A2.23,2.23,0,0,1,548.88,243.08Z" style="fill:#bf7f00;fill-rule:evenodd"/><circle cx="567.14" cy="245.31" r="2.23" style="fill:#bf7f00"/><path d="M548.88,264a2.23,2.23,0,1,1-2.24,2.23A2.23,2.23,0,0,1,548.88,264Z" style="fill:#bf7f00;fill-rule:evenodd"/><path d="M567.14,264a2.23,2.23,0,1,1-2.23,2.23A2.23,2.23,0,0,1,567.14,264Z" style="fill:#bf7f00;fill-rule:evenodd"/><path d="M548.88,305.84a2.23,2.23,0,1,1-2.24,2.23A2.23,2.23,0,0,1,548.88,305.84Z" style="fill:#bf7f00;fill-rule:evenodd"/><path d="M567.14,305.84a2.23,2.23,0,1,1-2.23,2.23A2.23,2.23,0,0,1,567.14,305.84Z" style="fill:#bf7f00;fill-rule:evenodd"/><path d="M548.88,326.75a2.24,2.24,0,1,1-2.24,2.24A2.23,2.23,0,0,1,548.88,326.75Z" style="fill:#bf7f00;fill-rule:evenodd"/><path d="M567.14,326.75a2.24,2.24,0,1,1-2.23,2.24A2.23,2.23,0,0,1,567.14,326.75Z" style="fill:#bf7f00;fill-rule:evenodd"/><path d="M548.88,284.92a2.23,2.23,0,1,1-2.24,2.23A2.23,2.23,0,0,1,548.88,284.92Z" style="fill:#bf7f00;fill-rule:evenodd"/><path d="M567.14,284.92a2.23,2.23,0,1,1-2.23,2.23A2.23,2.23,0,0,1,567.14,284.92Z" style="fill:#bf7f00;fill-rule:evenodd"/><path d="M548.88,347.67a2.24,2.24,0,1,1-2.24,2.23A2.23,2.23,0,0,1,548.88,347.67Z" style="fill:#bf7f00;fill-rule:evenodd"/><circle cx="567.14" cy="349.9" r="2.23" style="fill:#bf7f00"/><path d="M548.88,368.59a2.23,2.23,0,1,1-2.24,2.23A2.23,2.23,0,0,1,548.88,368.59Z" style="fill:#bf7f00;fill-rule:evenodd"/><path d="M567.14,368.59a2.23,2.23,0,1,1-2.23,2.23A2.23,2.23,0,0,1,567.14,368.59Z" style="fill:#bf7f00;fill-rule:evenodd"/><path d="M548.88,389.51a2.23,2.23,0,1,1-2.24,2.23A2.23,2.23,0,0,1,548.88,389.51Z" style="fill:#bf7f00;fill-rule:evenodd"/><path d="M567.14,389.51a2.23,2.23,0,1,1-2.23,2.23A2.23,2.23,0,0,1,567.14,389.51Z" style="fill:#bf7f00;fill-rule:evenodd"/><path d="M548.88,431.34a2.24,2.24,0,1,1-2.24,2.23A2.23,2.23,0,0,1,548.88,431.34Z" style="fill:#bf7f00;fill-rule:evenodd"/><path d="M567.14,431.34a2.24,2.24,0,1,1-2.23,2.23A2.23,2.23,0,0,1,567.14,431.34Z" style="fill:#bf7f00;fill-rule:evenodd"/><path d="M548.88,452.26a2.23,2.23,0,1,1-2.24,2.23A2.23,2.23,0,0,1,548.88,452.26Z" style="fill:#bf7f00;fill-rule:evenodd"/><path d="M567.14,452.26a2.23,2.23,0,1,1-2.23,2.23A2.23,2.23,0,0,1,567.14,452.26Z" style="fill:#bf7f00;fill-rule:evenodd"/><path d="M548.88,410.42a2.24,2.24,0,1,1-2.24,2.24A2.23,2.23,0,0,1,548.88,410.42Z" style="fill:#bf7f00;fill-rule:evenodd"/><circle cx="567.14" cy="412.66" r="2.23" style="fill:#bf7f00"/><path d="M399,236.45c6.34,24.76,10.19,57.13,10.19,92.54s-3.85,67.77-10.19,92.53l-2.49-.88c6.25-24.52,10-56.56,10-91.65s-3.79-67.14-10-91.65Z" style="fill:#bf7f00;fill-rule:evenodd"/><path d="M415.84,326.75A2.24,2.24,0,1,1,413.6,329,2.23,2.23,0,0,1,415.84,326.75Z" style="fill:#bf7f00;fill-rule:evenodd"/><path d="M416.24,303.52a2.23,2.23,0,1,1-2.23,2.23A2.23,2.23,0,0,1,416.24,303.52Z" style="fill:#bf7f00;fill-rule:evenodd"/><path d="M414.62,282.42a2.23,2.23,0,1,1-2.23,2.23A2.23,2.23,0,0,1,414.62,282.42Z" style="fill:#bf7f00;fill-rule:evenodd"/><path d="M411.78,260.5a2.23,2.23,0,1,1-2.23,2.23A2.23,2.23,0,0,1,411.78,260.5Z" style="fill:#bf7f00;fill-rule:evenodd"/><path d="M406.7,237.57a2.23,2.23,0,1,1-2.23,2.23A2.23,2.23,0,0,1,406.7,237.57Z" style="fill:#bf7f00;fill-rule:evenodd"/><path d="M391.08,242.85a2.23,2.23,0,1,1-2.23,2.23A2.23,2.23,0,0,1,391.08,242.85Z" style="fill:#bf7f00;fill-rule:evenodd"/><path d="M395.34,265a2.24,2.24,0,1,1-2.23,2.24A2.23,2.23,0,0,1,395.34,265Z" style="fill:#bf7f00;fill-rule:evenodd"/><path d="M398,285.46a2.23,2.23,0,1,1-2.23,2.23A2.23,2.23,0,0,1,398,285.46Z" style="fill:#bf7f00;fill-rule:evenodd"/><path d="M399.4,304.74a2.23,2.23,0,1,1-2.23,2.23A2.23,2.23,0,0,1,399.4,304.74Z" style="fill:#bf7f00;fill-rule:evenodd"/><path d="M399.4,326.75a2.24,2.24,0,1,1-2.23,2.24A2.23,2.23,0,0,1,399.4,326.75Z" style="fill:#bf7f00;fill-rule:evenodd"/><path d="M416.24,354.45a2.23,2.23,0,1,0-2.23-2.23A2.23,2.23,0,0,0,416.24,354.45Z" style="fill:#bf7f00;fill-rule:evenodd"/><path d="M414.62,375.56a2.24,2.24,0,1,0-2.23-2.24A2.23,2.23,0,0,0,414.62,375.56Z" style="fill:#bf7f00;fill-rule:evenodd"/><path d="M411.78,397.47a2.23,2.23,0,1,0-2.23-2.23A2.23,2.23,0,0,0,411.78,397.47Z" style="fill:#bf7f00;fill-rule:evenodd"/><path d="M406.7,420.4a2.23,2.23,0,1,0-2.23-2.23A2.23,2.23,0,0,0,406.7,420.4Z" style="fill:#bf7f00;fill-rule:evenodd"/><path d="M391.08,415.13a2.24,2.24,0,1,0-2.23-2.24A2.23,2.23,0,0,0,391.08,415.13Z" style="fill:#bf7f00;fill-rule:evenodd"/><path d="M395.34,393a2.24,2.24,0,1,0-2.23-2.23A2.23,2.23,0,0,0,395.34,393Z" style="fill:#bf7f00;fill-rule:evenodd"/><path d="M398,372.51a2.23,2.23,0,1,0-2.23-2.23A2.23,2.23,0,0,0,398,372.51Z" style="fill:#bf7f00;fill-rule:evenodd"/><path d="M399.4,353.23a2.23,2.23,0,1,0-2.23-2.23A2.23,2.23,0,0,0,399.4,353.23Z" style="fill:#bf7f00;fill-rule:evenodd"/><path d="M218.41,249.86a11.44,11.44,0,1,0-22.87,0l7.18,64.06h8.51Z" style="fill:gray;fill-rule:evenodd"/><path d="M204.85,313.92h6.38l7.18-64.06C216.47,267.22,204.85,265.29,204.85,313.92Z" style="fill:#6b6b6b;fill-rule:evenodd"/><path d="M195.54,408.41a11.44,11.44,0,1,0,22.87,0l-7.18-64.06h-8.51Z" style="fill:#6b6b6b;fill-rule:evenodd"/><path d="M209.1,344.35h-6.38l-7.18,64.06C197.48,391.05,209.1,393,209.1,344.35Z" style="fill:gray;fill-rule:evenodd"/><path d="M223.47,312.24H206.53a14.26,14.26,0,0,0-14.21,14.21v5.07a14.26,14.26,0,0,0,14.21,14.21h16.94Z" style="fill:#666;fill-rule:evenodd"/><path d="M223.47,338.08H206.53c-7.81,0-14.21-3.47-14.21-7.72v1.16a14.26,14.26,0,0,0,14.21,14.21h16.94v-7.65Z" style="fill:#4d4d4d;fill-rule:evenodd"/><path d="M223.47,319.89H206.53c-7.81,0-14.21,3.47-14.21,7.72v-1.16a14.26,14.26,0,0,1,14.21-14.21h16.94v7.65Z" style="fill:gray;fill-rule:evenodd"/><circle cx="783.03" cy="328.99" r="52.76" transform="translate(-42.59 129.68) rotate(-9.22)" style="fill:#ffe312"/><path d="M783,381.75a52.76,52.76,0,0,1-52.72-50.68c0,.69,0,1.38,0,2.08a52.76,52.76,0,1,0,105.52,0c0-.7,0-1.39,0-2.08A52.76,52.76,0,0,1,783,381.75Z" style="fill:#edaa00;fill-rule:evenodd"/><circle cx="783.03" cy="328.99" r="40.99" style="fill:#3c9dd6"/><circle cx="632.97" cy="328.99" r="52.76" transform="translate(-44.52 105.64) rotate(-9.22)" style="fill:#ffe312"/><path d="M633,381.75a52.76,52.76,0,0,1-52.72-50.68c0,.69,0,1.38,0,2.08a52.76,52.76,0,0,0,105.52,0c0-.7,0-1.39,0-2.08A52.76,52.76,0,0,1,633,381.75Z" style="fill:#edaa00;fill-rule:evenodd"/><circle cx="632.97" cy="328.99" r="40.99" style="fill:#3c9dd6"/><circle cx="482.91" cy="328.99" r="52.76" transform="translate(63.24 735.57) rotate(-78.36)" style="fill:#ffe312"/><path d="M482.91,381.75a52.76,52.76,0,0,1-52.72-50.68c0,.69,0,1.38,0,2.08a52.76,52.76,0,1,0,105.52,0c0-.7,0-1.39,0-2.08A52.76,52.76,0,0,1,482.91,381.75Z" style="fill:#edaa00;fill-rule:evenodd"/><circle cx="482.91" cy="328.99" r="40.99" transform="translate(-21.76 34.46) rotate(-4)" style="fill:#3c9dd6"/><rect x="236.05" y="325.54" width="77.31" height="12.78" rx="3.01" style="fill:#d99100"/><rect x="236.05" y="322.59" width="77.31" height="12.78" rx="3.01" style="fill:#edaa00"/><path d="M481.44,352.48c19.72,0,35.71-8.23,35.71-24.05a35.72,35.72,0,0,0-71.43,0C445.72,344,461.71,352.48,481.44,352.48Z" style="fill:#57c1f2;fill-rule:evenodd"/><path d="M445.78,330a35.71,35.71,0,0,1,71.31,0q.06-.8.06-1.62a35.72,35.72,0,0,0-71.43,0C445.72,329,445.74,329.51,445.78,330Z" style="fill:#a8ecff;fill-rule:evenodd"/><path d="M632,352.48c19.73,0,35.72-8.23,35.72-24.05a35.72,35.72,0,0,0-71.43,0C596.32,344,612.31,352.48,632,352.48Z" style="fill:#57c1f2;fill-rule:evenodd"/><path d="M596.38,330a35.71,35.71,0,0,1,71.31,0q.06-.8.06-1.62a35.72,35.72,0,0,0-71.43,0C596.32,329,596.34,329.51,596.38,330Z" style="fill:#a8ecff;fill-rule:evenodd"/><path d="M782,352.48c19.72,0,35.71-8.23,35.71-24.05a35.72,35.72,0,0,0-71.43,0C746.25,344,762.24,352.48,782,352.48Z" style="fill:#57c1f2;fill-rule:evenodd"/><path d="M746.31,330a35.71,35.71,0,0,1,71.31,0q.06-.8.06-1.62a35.72,35.72,0,0,0-71.43,0C746.25,329,746.27,329.51,746.31,330Z" style="fill:#a8ecff;fill-rule:evenodd"/><path d="M22.17,311.41A30.16,30.16,0,1,0,63,323.89a30.21,30.21,0,0,0-40.79-12.48Zm31.21,58.72a36.34,36.34,0,1,1,15-49.14,36.37,36.37,0,0,1-15,49.14Z" style="fill:#3c9dd6"/><path d="M18.53,345.9a3.14,3.14,0,0,1-.92.32,3.1,3.1,0,0,1-3.57-2.5,25.41,25.41,0,0,1,11.68-26.14A3.09,3.09,0,0,1,29,322.83a19.25,19.25,0,0,0-8.85,19.81,3.1,3.1,0,0,1-1.59,3.26Z" style="fill:#3c9dd6"/><path d="M83.06,206.5a34.53,34.53,0,1,0,43.4,22.4,34.57,34.57,0,0,0-43.4-22.4ZM106.51,280a42.57,42.57,0,1,1,27.6-53.5,42.62,42.62,0,0,1-27.6,53.5Z" style="fill:#3c9dd6"/><path d="M71,238.74a4.18,4.18,0,0,1-1.25-.17,4,4,0,0,1-2.7-5,29.88,29.88,0,0,1,26.07-21.33,4,4,0,0,1,.72,8,22.17,22.17,0,0,0-19.09,15.63A4,4,0,0,1,71,238.74Z" style="fill:#3c9dd6"/><path d="M148.28,333.49a15.8,15.8,0,1,0-15.41,16.17,15.81,15.81,0,0,0,15.41-16.17Zm-38,.91A22.23,22.23,0,1,1,133,356.09a22.24,22.24,0,0,1-22.75-21.69Z" style="fill:#3c9dd6"/></g></g></svg>