<svg aria-hidden="true" style="position: absolute; width: 0; height: 0; overflow: hidden;" version="1.1" xmlns="http://www.w3.org/2000/svg" xmlns:xlink="http://www.w3.org/1999/xlink">
<defs>
<symbol id="icon-sort" viewBox="0 0 24 24">
<title>sort</title>
<path d="M21 12.984v-1.969h-12v1.969h12zM21 6h-18v2.016h18v-2.016zM21 18v-2.016h-6v2.016h6z"></path>
</symbol>
<symbol id="icon-youtube" viewBox="0 0 45.22 32">
<title>youtube</title>
<g id="Capa_2" data-name="Capa 2"><g id="Layer_1" data-name="Layer 1"><path d="M35.83,0H9.39A9.38,9.38,0,0,0,0,9.39V22.61A9.38,9.38,0,0,0,9.39,32H35.83a9.38,9.38,0,0,0,9.39-9.39V9.39A9.38,9.38,0,0,0,35.83,0ZM29.48,16.64l-12.37,5.9a.49.49,0,0,1-.71-.45V9.93a.49.49,0,0,1,.72-.44l12.37,6.26A.5.5,0,0,1,29.48,16.64Z"/></g></g>
</symbol>
<symbol id="icon-facebook" viewBox="0 0 16 28">
<title>facebook</title>
<path d="M14.984 0.187v4.125h-2.453c-1.922 0-2.281 0.922-2.281 2.25v2.953h4.578l-0.609 4.625h-3.969v11.859h-4.781v-11.859h-3.984v-4.625h3.984v-3.406c0-3.953 2.422-6.109 5.953-6.109 1.687 0 3.141 0.125 3.563 0.187z"></path>
</symbol>
<symbol id="icon-instagram" viewBox="0 0 24 28">
<title>instagram</title>
<path d="M16 14c0-2.203-1.797-4-4-4s-4 1.797-4 4 1.797 4 4 4 4-1.797 4-4zM18.156 14c0 3.406-2.75 6.156-6.156 6.156s-6.156-2.75-6.156-6.156 2.75-6.156 6.156-6.156 6.156 2.75 6.156 6.156zM19.844 7.594c0 0.797-0.641 1.437-1.437 1.437s-1.437-0.641-1.437-1.437 0.641-1.437 1.437-1.437 1.437 0.641 1.437 1.437zM12 4.156c-1.75 0-5.5-0.141-7.078 0.484-0.547 0.219-0.953 0.484-1.375 0.906s-0.688 0.828-0.906 1.375c-0.625 1.578-0.484 5.328-0.484 7.078s-0.141 5.5 0.484 7.078c0.219 0.547 0.484 0.953 0.906 1.375s0.828 0.688 1.375 0.906c1.578 0.625 5.328 0.484 7.078 0.484s5.5 0.141 7.078-0.484c0.547-0.219 0.953-0.484 1.375-0.906s0.688-0.828 0.906-1.375c0.625-1.578 0.484-5.328 0.484-7.078s0.141-5.5-0.484-7.078c-0.219-0.547-0.484-0.953-0.906-1.375s-0.828-0.688-1.375-0.906c-1.578-0.625-5.328-0.484-7.078-0.484zM24 14c0 1.656 0.016 3.297-0.078 4.953-0.094 1.922-0.531 3.625-1.937 5.031s-3.109 1.844-5.031 1.937c-1.656 0.094-3.297 0.078-4.953 0.078s-3.297 0.016-4.953-0.078c-1.922-0.094-3.625-0.531-5.031-1.937s-1.844-3.109-1.937-5.031c-0.094-1.656-0.078-3.297-0.078-4.953s-0.016-3.297 0.078-4.953c0.094-1.922 0.531-3.625 1.937-5.031s3.109-1.844 5.031-1.937c1.656-0.094 3.297-0.078 4.953-0.078s3.297-0.016 4.953 0.078c1.922 0.094 3.625 0.531 5.031 1.937s1.844 3.109 1.937 5.031c0.094 1.656 0.078 3.297 0.078 4.953z"></path>
</symbol>








<symbol id="icon-logo-full" viewBox="0 0 70.37 32">
<title>logo-full</title>
<path d="M17.1,27.2S5.54,26.87,5.39,16C5.54,5.13,17.1,4.8,17.1,4.8c4.68,2.56,6-1.12,6-1.12C24.34-.22,17.88,0,17.88,0,.73.74.07,14.55,0,15.94H0v.12H0C.07,17.45.73,31.26,17.88,32c0,0,6.46.22,5.24-3.68C23.12,28.32,21.78,24.64,17.1,27.2Z"/><rect x="69.03" y="12.42" width="1.61" height="7.18"/><path d="M46.09,14.59a3.64,3.64,0,0,0-.83-1.15A3.92,3.92,0,0,0,44,12.68a4.09,4.09,0,0,0-3,0,3.92,3.92,0,0,0-1.22.76A3.77,3.77,0,0,0,39,14.59,3.42,3.42,0,0,0,38.69,16a3.33,3.33,0,0,0,.31,1.4,3.77,3.77,0,0,0,.82,1.15,4,4,0,0,0,2.72,1,4,4,0,0,0,1.5-.28,3.92,3.92,0,0,0,1.22-.76,3.64,3.64,0,0,0,.83-1.15,3.32,3.32,0,0,0,.3-1.4A3.41,3.41,0,0,0,46.09,14.59ZM44.76,16a2,2,0,0,1-.17.82,2.2,2.2,0,0,1-.48.68,2.12,2.12,0,0,1-.71.46,2.23,2.23,0,0,1-1.72,0,2.12,2.12,0,0,1-.71-.46,2,2,0,0,1-.47-.68,1.89,1.89,0,0,1-.18-.82,2,2,0,0,1,.18-.83,2.06,2.06,0,0,1,.47-.69,2.29,2.29,0,0,1,.71-.46,2.24,2.24,0,0,1,.86-.17,2.28,2.28,0,0,1,1.57.63,2.38,2.38,0,0,1,.48.69A2.12,2.12,0,0,1,44.76,16Z"/><polygon points="65.81 12.45 65.81 13.91 62.58 13.91 62.58 19.61 60.98 19.61 60.98 12.45 65.81 12.45"/><rect x="57.36" y="12.45" width="3" height="1.46"/><path d="M33.84,17h1.75l-.16.37c-.06.12-.12.24-.19.36a3.68,3.68,0,0,1-.83,1,4,4,0,0,1-1.14.64,3.9,3.9,0,0,1-1.37.23,3.86,3.86,0,0,1-1.48-.28,3.69,3.69,0,0,1-2-1.89,3.36,3.36,0,0,1-.3-1.4,3.29,3.29,0,0,1,.3-1.4,3.85,3.85,0,0,1,.82-1.14,4.07,4.07,0,0,1,1.22-.76A4.09,4.09,0,0,1,33,12.61a4.05,4.05,0,0,1,1,.45,3.89,3.89,0,0,1,.81.7,3.63,3.63,0,0,1,.58.88l.17.38H33.82l-.07-.13a2.25,2.25,0,0,0-.78-.72,2.15,2.15,0,0,0-1.07-.27,2.18,2.18,0,0,0-.85.16,2.31,2.31,0,0,0-.71.47,2.36,2.36,0,0,0-.47.68,2,2,0,0,0-.17.82,2,2,0,0,0,.17.82,2.36,2.36,0,0,0,.47.68,2.29,2.29,0,0,0,.71.46,2.23,2.23,0,0,0,1.61,0,2.51,2.51,0,0,0,.64-.36,2.07,2.07,0,0,0,.46-.52Z"/><path d="M55.49,19.6H53.74l-1.12-2h-.53l-.63-1.38h.93a1.15,1.15,0,0,0,.5-.1,1.91,1.91,0,0,0,.4-.28,1.56,1.56,0,0,0,.27-.4,1.2,1.2,0,0,0,.09-.45,1,1,0,0,0-.1-.45,1.31,1.31,0,0,0-.26-.4,1.41,1.41,0,0,0-.4-.27,1.15,1.15,0,0,0-.5-.1H49.61V12.42h2.65a3.46,3.46,0,0,1,.92.12,3.4,3.4,0,0,1,.79.3,2.57,2.57,0,0,1,1.21,1.45v0a.64.64,0,0,0,0,.07s0,0,0,0l0,.05v0a.51.51,0,0,1,0,.13.19.19,0,0,1,0,.08,1.28,1.28,0,0,1,0,.17v.25a.57.57,0,0,1,0,.13v0a.28.28,0,0,1,0,.09.43.43,0,0,1,0,.11v.05l0,.05a.45.45,0,0,0,0,.11l0,0a2.51,2.51,0,0,1-1.08,1.35Z"/><rect x="49.61" y="14.49" width="1.61" height="5.11"/><path d="M8.25,17.48s-1.82-6.59,4.43-9c0,0,.33-.5,1.46.32s2.79,2.08,1.45,3.38-4.65,4.72.48,7.3S26.62,13.76,18.43,10c0,0,6.78.71,6.12,7.71C23.8,25.74,11,25.53,8.25,17.48Z"/>
</symbol>

<symbol id="icon-logo-full-color" viewBox="0 0 70.37 32">
<title>logo-full-color</title>
<path d="M17.1,27.2S5.54,26.87,5.39,16C5.54,5.13,17.1,4.8,17.1,4.8c4.68,2.56,6-1.12,6-1.12C24.34-.22,17.88,0,17.88,0,.73.74.07,14.55,0,15.94H0v.12H0C.07,17.45.73,31.26,17.88,32c0,0,6.46.22,5.24-3.68C23.12,28.32,21.78,24.64,17.1,27.2Z" style="fill:#5388a5"/><rect x="69.3" y="12.69" width="1.07" height="6.65" style="fill:#1f140f"/><path d="M42.54,12.66a3.87,3.87,0,0,1,1.4.26,3.69,3.69,0,0,1,1.14.72,3.22,3.22,0,0,1,.76,1.06A3.05,3.05,0,0,1,46.12,16a3,3,0,0,1-.28,1.29,3.22,3.22,0,0,1-.76,1.06,3.69,3.69,0,0,1-1.14.72,3.87,3.87,0,0,1-1.4.26,3.79,3.79,0,0,1-1.4-.26A3.94,3.94,0,0,1,40,18.36a3.37,3.37,0,0,1-.76-1.06A3,3,0,0,1,39,16a3.05,3.05,0,0,1,.28-1.31A3.37,3.37,0,0,1,40,13.64a3.94,3.94,0,0,1,1.14-.72A3.79,3.79,0,0,1,42.54,12.66Zm0,5.75a2.55,2.55,0,0,0,1.76-.71,2.42,2.42,0,0,0,.53-.76A2.25,2.25,0,0,0,45,16a2.33,2.33,0,0,0-.2-.94,2.51,2.51,0,0,0-3.25-1.29,2.52,2.52,0,0,0-.79.52,2.44,2.44,0,0,0-.54.77,2.32,2.32,0,0,0-.19.94,2.24,2.24,0,0,0,.19.93,2.29,2.29,0,0,0,.54.76,2.52,2.52,0,0,0,.79.52A2.57,2.57,0,0,0,42.54,18.41Z" style="fill:#1f140f"/><path d="M57.63,12.72h2.46v.93H57.63Zm3.62,0h4.29v.93H62.31v5.69H61.25V12.72Z" style="fill:#1f140f"/><path d="M35.18,17.3a2,2,0,0,1-.17.32,3.17,3.17,0,0,1-.77.9,3.46,3.46,0,0,1-1.06.6,3.63,3.63,0,0,1-1.28.22,3.72,3.72,0,0,1-1.38-.26,3.86,3.86,0,0,1-1.14-.71,3.45,3.45,0,0,1-.76-1.05,3.11,3.11,0,0,1,0-2.58,3.45,3.45,0,0,1,.76-1.05A3.49,3.49,0,0,1,30.52,13a3.53,3.53,0,0,1,1.38-.26,4.18,4.18,0,0,1,1.07.14,3.37,3.37,0,0,1,.92.43,3.53,3.53,0,0,1,.75.64,3.63,3.63,0,0,1,.54.82H34a2.47,2.47,0,0,0-2.07-1.12,2.38,2.38,0,0,0-1,.19,2.48,2.48,0,0,0-.78.52,2.42,2.42,0,0,0-.53.76,2.22,2.22,0,0,0-.2.93,2.25,2.25,0,0,0,.2.93,2.53,2.53,0,0,0,.53.76,2.48,2.48,0,0,0,.78.52,2.57,2.57,0,0,0,1,.19,2.32,2.32,0,0,0,.84-.15,2.72,2.72,0,0,0,.73-.4A2.88,2.88,0,0,0,34,17.3Z" style="fill:#1f140f"/><path d="M52.26,17.38h.26l.24,0,1.14,2H55L53.74,17l0,0,.05,0a2.49,2.49,0,0,0,.68-.56,2.19,2.19,0,0,0,.41-.73s0-.1,0-.17v0a.38.38,0,0,0,0-.1s0-.07,0-.1v0a.45.45,0,0,0,0-.11v-.25a.49.49,0,0,0,0-.12s0-.07,0-.11a.29.29,0,0,0,0-.1v-.05l0-.08a.31.31,0,0,0,0-.08,2.29,2.29,0,0,0-1.09-1.29,3.37,3.37,0,0,0-.73-.29,3.3,3.3,0,0,0-.85-.1H49.87v.85h2.52a1.36,1.36,0,0,1,.61.13,1.58,1.58,0,0,1,.48.33,1.56,1.56,0,0,1,.32.47,1.41,1.41,0,0,1,.12.56,1.38,1.38,0,0,1-.12.56,1.86,1.86,0,0,1-.32.47,1.82,1.82,0,0,1-.48.34,1.51,1.51,0,0,1-.61.12h-.52Z" style="fill:#1f140f"/><rect x="49.87" y="14.75" width="1.08" height="4.58" style="fill:#1f140f"/><path d="M8.25,17.48s-1.82-6.59,4.43-9c0,0,.33-.5,1.46.32s2.79,2.08,1.45,3.38-4.65,4.72.48,7.3S26.62,13.76,18.43,10c0,0,6.78.71,6.12,7.71C23.8,25.74,11,25.53,8.25,17.48Z" style="fill:#ffe039"/><path d="M28.55,23.19a1.45,1.45,0,0,1,.56-1A1.64,1.64,0,0,1,31,22a1.68,1.68,0,0,1,.6.64h-.35a1.28,1.28,0,0,0-1.07-.54,1.33,1.33,0,0,0-1,2.27,1.28,1.28,0,0,0,.94.39,1.31,1.31,0,0,0,1.1-.58h.35a1.82,1.82,0,0,1-.65.67,1.57,1.57,0,0,1-.8.21A1.61,1.61,0,0,1,29,24.61a1.55,1.55,0,0,1-.51-1.2A1.8,1.8,0,0,1,28.55,23.19Z" style="fill:#5388a5"/><path d="M32.43,23.82a1.17,1.17,0,0,1,.38-.9,1.16,1.16,0,0,1,.82-.33,1.17,1.17,0,0,1,.82.32,1.24,1.24,0,0,1,.4,1v.06H32.74a.73.73,0,0,0,.31.62.91.91,0,0,0,.57.19,1,1,0,0,0,.5-.14.8.8,0,0,0,.34-.37h.32a1.25,1.25,0,0,1-1.17.82,1.09,1.09,0,0,1-.85-.37A1.22,1.22,0,0,1,32.43,23.82Zm2.11-.16a.94.94,0,0,0-.9-.76.87.87,0,0,0-.69.32.93.93,0,0,0-.21.44Z" style="fill:#5388a5"/><path d="M35.72,25V22.66H36V23a.77.77,0,0,1,.32-.3.88.88,0,0,1,.42-.11,1,1,0,0,1,.7.28,1,1,0,0,1,.32.8V25h-.3V23.68a.81.81,0,0,0-.2-.55.73.73,0,0,0-.54-.21.69.69,0,0,0-.51.2.73.73,0,0,0-.19.52V25Z" style="fill:#5388a5"/><path d="M39,25V23h-.49v-.29H39v-.83h.31v.83h.54V23h-.54V25Z" style="fill:#5388a5"/><path d="M40.65,25V22.65h.29V23a.7.7,0,0,1,.68-.41v.33a.64.64,0,0,0-.44.18.57.57,0,0,0-.22.46V25Z" style="fill:#5388a5"/><path d="M42.28,23.79a1.1,1.1,0,0,1,.37-.85,1.23,1.23,0,0,1,.88-.34,1.21,1.21,0,0,1,.78.32,1,1,0,0,1,.4.8,1.39,1.39,0,0,1-.33.93,1.14,1.14,0,0,1-.89.41,1.18,1.18,0,0,1-.83-.33A1.24,1.24,0,0,1,42.28,23.79Zm.31,0a1,1,0,0,0,.25.68.89.89,0,0,0,1.25,0,.91.91,0,0,0,.3-.71.92.92,0,0,0-.89-.9.89.89,0,0,0-.65.27A.86.86,0,0,0,42.59,23.81Z" style="fill:#5388a5"/><path d="M48.58,24.21H47.17l-.37.8h-.54l1.64-3.52L49.48,25h-.55Zm-.2-.47-.49-1.13-.52,1.13Z" style="fill:#5388a5"/><path d="M50.28,22.92v1.2c0,.35.13.52.4.52s.41-.17.41-.52v-1.2h.49v1.21a1.33,1.33,0,0,1-.07.43.83.83,0,0,1-.2.3.94.94,0,0,1-.63.21.89.89,0,0,1-.61-.21.78.78,0,0,1-.22-.3,1.16,1.16,0,0,1-.06-.43V22.92Z" style="fill:#5388a5"/><path d="M53.72,21.39h.49V25h-.49v-.22a.87.87,0,0,1-.64.28.92.92,0,0,1-.71-.31,1.17,1.17,0,0,1-.28-.8,1.12,1.12,0,0,1,.28-.78.89.89,0,0,1,.7-.32.88.88,0,0,1,.65.3ZM52.58,24a.72.72,0,0,0,.16.49.57.57,0,0,0,.85,0,.8.8,0,0,0,0-1,.54.54,0,0,0-.43-.19.52.52,0,0,0-.42.19A.67.67,0,0,0,52.58,24Z" style="fill:#5388a5"/><path d="M54.74,22.05a.29.29,0,0,1,.09-.21.3.3,0,0,1,.22-.1.29.29,0,0,1,.23.1.29.29,0,0,1,.09.22.31.31,0,0,1-.31.31.33.33,0,0,1-.23-.09A.32.32,0,0,1,54.74,22.05Zm.56.87V25h-.49V22.92Z" style="fill:#5388a5"/><path d="M55.81,24a1.06,1.06,0,0,1,.32-.77,1.1,1.1,0,0,1,.79-.32,1.09,1.09,0,0,1,.79.32A1.06,1.06,0,0,1,58,24a1,1,0,0,1-.32.78,1.11,1.11,0,0,1-.8.32A1.09,1.09,0,0,1,55.81,24Zm.49,0a.69.69,0,0,0,.17.49.55.55,0,0,0,.45.19.58.58,0,0,0,.45-.18.73.73,0,0,0,.17-.49.71.71,0,0,0-.17-.49.58.58,0,0,0-.45-.18.61.61,0,0,0-.45.18A.7.7,0,0,0,56.3,24Z" style="fill:#5388a5"/><path d="M59,21.39V25h-.49V21.39Z" style="fill:#5388a5"/><path d="M59.54,24a1.06,1.06,0,0,1,.32-.77,1.14,1.14,0,0,1,1.58,0,1.06,1.06,0,0,1,.32.79,1,1,0,0,1-.32.78,1.15,1.15,0,0,1-1.59,0A1.09,1.09,0,0,1,59.54,24ZM60,24a.69.69,0,0,0,.17.49.55.55,0,0,0,.45.19.58.58,0,0,0,.45-.18.73.73,0,0,0,.17-.49.71.71,0,0,0-.17-.49.58.58,0,0,0-.45-.18.61.61,0,0,0-.45.18A.7.7,0,0,0,60,24Zm1.34-2.07-.78.71-.26-.16.59-.78Z" style="fill:#5388a5"/><path d="M64.29,25a2.09,2.09,0,0,1,0,.26,1.2,1.2,0,0,1,0,.2.84.84,0,0,1-.2.4,1,1,0,0,1-.77.33,1,1,0,0,1-.69-.23.88.88,0,0,1-.32-.64h.48a.6.6,0,0,0,.09.24.53.53,0,0,0,.44.2c.35,0,.53-.22.53-.65v-.29a.91.91,0,0,1-.66.29.87.87,0,0,1-.7-.31,1.16,1.16,0,0,1-.28-.78,1.22,1.22,0,0,1,.26-.78.89.89,0,0,1,.72-.34.84.84,0,0,1,.66.3v-.24h.48Zm-.46-1a.76.76,0,0,0-.16-.49.57.57,0,0,0-.43-.18.51.51,0,0,0-.43.2.86.86,0,0,0,0,.94.54.54,0,0,0,.43.2.54.54,0,0,0,.44-.2A.72.72,0,0,0,63.83,24Z" style="fill:#5388a5"/><path d="M64.83,22.05a.29.29,0,0,1,.09-.21.29.29,0,0,1,.44,0,.29.29,0,0,1,.09.22.31.31,0,0,1-.09.22.31.31,0,0,1-.44,0A.32.32,0,0,1,64.83,22.05Zm.55.87V25H64.9V22.92Z" style="fill:#5388a5"/><path d="M67.62,23v.64a1.17,1.17,0,0,0-.3-.27.52.52,0,0,0-.3-.08.58.58,0,0,0-.45.19.68.68,0,0,0-.18.48.67.67,0,0,0,.17.48.62.62,0,0,0,.75.11,1.23,1.23,0,0,0,.31-.28v.64a1.32,1.32,0,0,1-.59.15,1.17,1.17,0,0,1-.81-.31,1.1,1.1,0,0,1,0-1.57,1.1,1.1,0,0,1,.81-.33A1.23,1.23,0,0,1,67.62,23Z" style="fill:#5388a5"/><path d="M68,24a1,1,0,0,1,.33-.77,1.09,1.09,0,0,1,.79-.32A1.09,1.09,0,0,1,70.21,24a1.06,1.06,0,0,1-.32.78,1.13,1.13,0,0,1-.8.32,1.07,1.07,0,0,1-.79-.32A1.09,1.09,0,0,1,68,24Zm.5,0a.69.69,0,0,0,.16.49.59.59,0,0,0,.46.19.61.61,0,0,0,.45-.18.73.73,0,0,0,.17-.49.71.71,0,0,0-.17-.49.61.61,0,0,0-.45-.18.58.58,0,0,0-.45.18A.66.66,0,0,0,68.48,24Z" style="fill:#5388a5"/>
</symbol>
<symbol id="icon-logo" viewBox="0 0 92 32">
<title>logo</title>
<path d="M0 10v-8h20v8h-20zM1.224 8.751h17.553v-5.501h-17.553v5.501zM0 30v-8h20v8h-20zM1.224 28.749h17.553v-5.501h-17.553v5.501zM36 0l12 30h-24l12-30zM36 3.275l-10.174 25.435h20.348l-10.174-25.435zM58 24.669c5.935 0 10.764-5.234 10.764-11.668s-4.829-11.67-10.764-11.67-10.764 5.235-10.764 11.67c0 6.434 4.829 11.668 10.764 11.668zM58 0c6.616 0 12 5.832 12 13.001 0 7.168-5.384 12.999-12 12.999s-12-5.832-12-12.999c0-7.169 5.383-13.001 12-13.001zM68 2h24v30l-24-30zM70.598 3.279l20.201 25.251v-25.251h-20.201z"></path>
</symbol>
<symbol id="icon-email" viewBox="0 0 20 20">
<title>email</title>
<path d="M19.833 1.127c-0.144-0.129-0.349-0.163-0.527-0.088l-19 8c-0.192 0.081-0.314 0.272-0.306 0.48s0.144 0.389 0.342 0.455l5.658 1.886v5.64c0 0.212 0.133 0.4 0.333 0.471 0.055 0.019 0.111 0.029 0.167 0.029 0.148 0 0.291-0.066 0.388-0.185l2.763-3.401 4.497 4.441c0.095 0.094 0.221 0.144 0.351 0.144 0.042 0 0.084-0.005 0.125-0.016 0.17-0.044 0.305-0.174 0.355-0.343l5-17c0.055-0.185-0.003-0.385-0.147-0.514zM16.13 3.461l-9.724 7.48-4.488-1.496 14.212-5.984zM7 11.746l9.415-7.242-7.194 8.854c-0 0-0 0.001-0.001 0.001l-2.22 2.733v-4.346zM14.256 17.557l-3.972-3.922 8.033-9.887-4.061 13.808z"></path>
</symbol>
<symbol id="icon-arrow-left" viewBox="0 0 20 20">
<title>arrow-left</title>
<path d="M0.646 10.146l6-6c0.195-0.195 0.512-0.195 0.707 0s0.195 0.512 0 0.707l-5.146 5.146h16.293c0.276 0 0.5 0.224 0.5 0.5s-0.224 0.5-0.5 0.5h-16.293l5.146 5.146c0.195 0.195 0.195 0.512 0 0.707-0.098 0.098-0.226 0.146-0.354 0.146s-0.256-0.049-0.354-0.146l-6-6c-0.195-0.195-0.195-0.512 0-0.707z"></path>
</symbol>
<symbol id="icon-arrow-right" viewBox="0 0 20 20">
<title>arrow-right</title>
<path d="M19.354 10.146l-6-6c-0.195-0.195-0.512-0.195-0.707 0s-0.195 0.512 0 0.707l5.146 5.146h-16.293c-0.276 0-0.5 0.224-0.5 0.5s0.224 0.5 0.5 0.5h16.293l-5.146 5.146c-0.195 0.195-0.195 0.512 0 0.707 0.098 0.098 0.226 0.146 0.354 0.146s0.256-0.049 0.354-0.146l6-6c0.195-0.195 0.195-0.512 0-0.707z"></path>
</symbol>
<symbol id="icon-play-circle" viewBox="0 0 20 20">
<title>play-circle</title>
<path d="M9.5 20c-2.538 0-4.923-0.988-6.718-2.782s-2.782-4.18-2.782-6.717c0-2.538 0.988-4.923 2.782-6.718s4.18-2.783 6.718-2.783c2.538 0 4.923 0.988 6.718 2.783s2.782 4.18 2.782 6.718-0.988 4.923-2.782 6.717c-1.794 1.794-4.18 2.782-6.718 2.782zM9.5 2c-4.687 0-8.5 3.813-8.5 8.5s3.813 8.5 8.5 8.5c4.687 0 8.5-3.813 8.5-8.5s-3.813-8.5-8.5-8.5z"></path>
<path d="M6.5 16c-0.083 0-0.167-0.021-0.242-0.063-0.159-0.088-0.258-0.256-0.258-0.437v-10c0-0.182 0.099-0.349 0.258-0.437s0.353-0.083 0.507 0.013l8 5c0.146 0.091 0.235 0.252 0.235 0.424s-0.089 0.333-0.235 0.424l-8 5c-0.081 0.051-0.173 0.076-0.265 0.076zM7 6.402v8.196l6.557-4.098-6.557-4.098z"></path>
</symbol>

</defs>
</svg>
