<?xml version="1.0" standalone="no"?>
<!DOCTYPE svg PUBLIC "-//W3C//DTD SVG 20010904//EN"
 "http://www.w3.org/TR/2001/REC-SVG-20010904/DTD/svg10.dtd">
<svg version="1.0" xmlns="http://www.w3.org/2000/svg"
 width="260.000000pt" height="260.000000pt" viewBox="0 0 260.000000 260.000000"
 preserveAspectRatio="xMidYMid meet">
<metadata>
Created by potrace 1.14, written by Peter Selinger 2001-2017
</metadata>
<g transform="translate(0.000000,260.000000) scale(0.100000,-0.100000)"
fill="#000000" stroke="none">
<path d="M1645 2589 c-300 -35 -477 -83 -666 -181 -281 -145 -481 -373 -595
-675 -112 -297 -116 -548 -13 -840 136 -385 408 -653 804 -793 162 -57 417
-100 589 -100 124 0 268 34 330 77 57 39 89 104 82 165 -22 198 -240 278 -456
168 -49 -25 -103 -22 -245 10 -384 89 -631 310 -717 644 -32 120 -31 358 0
471 13 44 32 99 42 122 11 24 20 45 20 48 0 3 16 32 36 63 137 213 343 344
649 412 122 27 171 25 239 -6 83 -38 167 -50 240 -34 51 10 67 20 116 68 104
102 108 211 11 294 -49 42 -113 64 -236 84 -99 15 -126 15 -230 3z"/>
</g>
</svg>
